<mxfile host="Electron" modified="2023-05-07T14:36:28.441Z" agent="Mozilla/5.0 (Macintosh; Intel Mac OS X 10_15_7) AppleWebKit/537.36 (KHTML, like Gecko) draw.io/21.2.8 Chrome/112.0.5615.165 Electron/24.2.0 Safari/537.36" etag="-cit_Odu93J3DvWspr7L" version="21.2.8" type="device">
  <diagram id="C5RBs43oDa-KdzZeNtuy" name="Page-1">
    <mxGraphModel dx="732" dy="811" grid="1" gridSize="10" guides="1" tooltips="1" connect="1" arrows="1" fold="1" page="1" pageScale="1" pageWidth="827" pageHeight="1169" math="0" shadow="0">
      <root>
        <mxCell id="WIyWlLk6GJQsqaUBKTNV-0" />
        <mxCell id="WIyWlLk6GJQsqaUBKTNV-1" parent="WIyWlLk6GJQsqaUBKTNV-0" />
        <mxCell id="dYI3dTuQ3Ob1T5ZX_YG3-53" style="edgeStyle=orthogonalEdgeStyle;rounded=0;orthogonalLoop=1;jettySize=auto;html=1;endArrow=classicThin;endFill=1;" parent="WIyWlLk6GJQsqaUBKTNV-1" source="dYI3dTuQ3Ob1T5ZX_YG3-37" target="dYI3dTuQ3Ob1T5ZX_YG3-76" edge="1">
          <mxGeometry relative="1" as="geometry">
            <mxPoint x="280" y="620" as="targetPoint" />
          </mxGeometry>
        </mxCell>
        <mxCell id="dYI3dTuQ3Ob1T5ZX_YG3-37" value="&lt;font style=&quot;font-size: 10px;&quot;&gt;Set the Search Task to the&lt;br&gt;First Task in the Task List&lt;/font&gt;" style="rounded=1;whiteSpace=wrap;html=1;" parent="WIyWlLk6GJQsqaUBKTNV-1" vertex="1">
          <mxGeometry x="90" y="625" width="120" height="50" as="geometry" />
        </mxCell>
        <mxCell id="dYI3dTuQ3Ob1T5ZX_YG3-48" value="No" style="edgeStyle=orthogonalEdgeStyle;rounded=0;orthogonalLoop=1;jettySize=auto;html=1;exitX=1;exitY=0.5;exitDx=0;exitDy=0;entryX=0;entryY=0.5;entryDx=0;entryDy=0;endArrow=classicThin;endFill=1;" parent="WIyWlLk6GJQsqaUBKTNV-1" source="dYI3dTuQ3Ob1T5ZX_YG3-38" target="dYI3dTuQ3Ob1T5ZX_YG3-43" edge="1">
          <mxGeometry x="-0.2593" y="10" relative="1" as="geometry">
            <mxPoint as="offset" />
          </mxGeometry>
        </mxCell>
        <mxCell id="dYI3dTuQ3Ob1T5ZX_YG3-38" value="&lt;font style=&quot;font-size: 10px;&quot;&gt;Is the &lt;br style=&quot;font-size: 10px;&quot;&gt;Search Task Expired?&lt;br style=&quot;font-size: 10px;&quot;&gt;&lt;/font&gt;" style="rhombus;whiteSpace=wrap;html=1;fontSize=10;" parent="WIyWlLk6GJQsqaUBKTNV-1" vertex="1">
          <mxGeometry x="240" y="730" width="80" height="80" as="geometry" />
        </mxCell>
        <mxCell id="dYI3dTuQ3Ob1T5ZX_YG3-46" style="edgeStyle=orthogonalEdgeStyle;rounded=0;orthogonalLoop=1;jettySize=auto;html=1;entryX=0;entryY=0.5;entryDx=0;entryDy=0;endArrow=classicThin;endFill=1;" parent="WIyWlLk6GJQsqaUBKTNV-1" source="dYI3dTuQ3Ob1T5ZX_YG3-39" target="dYI3dTuQ3Ob1T5ZX_YG3-38" edge="1">
          <mxGeometry relative="1" as="geometry">
            <mxPoint x="200" y="780" as="targetPoint" />
            <Array as="points">
              <mxPoint x="200" y="870" />
              <mxPoint x="200" y="770" />
            </Array>
          </mxGeometry>
        </mxCell>
        <mxCell id="dYI3dTuQ3Ob1T5ZX_YG3-39" value="&lt;span style=&quot;font-size: 10px;&quot;&gt;Task Handler&lt;br&gt;&lt;/span&gt;" style="rounded=0;whiteSpace=wrap;html=1;" parent="WIyWlLk6GJQsqaUBKTNV-1" vertex="1">
          <mxGeometry x="245" y="855" width="70" height="35" as="geometry" />
        </mxCell>
        <mxCell id="dYI3dTuQ3Ob1T5ZX_YG3-40" value="" style="endArrow=classicThin;html=1;rounded=0;entryX=0.5;entryY=0;entryDx=0;entryDy=0;exitX=0.5;exitY=1;exitDx=0;exitDy=0;endFill=1;" parent="WIyWlLk6GJQsqaUBKTNV-1" target="dYI3dTuQ3Ob1T5ZX_YG3-39" edge="1">
          <mxGeometry width="50" height="50" relative="1" as="geometry">
            <mxPoint x="280" y="810" as="sourcePoint" />
            <mxPoint x="280" y="800" as="targetPoint" />
          </mxGeometry>
        </mxCell>
        <mxCell id="dYI3dTuQ3Ob1T5ZX_YG3-41" value="Expired" style="edgeLabel;html=1;align=center;verticalAlign=middle;resizable=0;points=[];fontSize=10;" parent="dYI3dTuQ3Ob1T5ZX_YG3-40" vertex="1" connectable="0">
          <mxGeometry x="-0.3818" y="-1" relative="1" as="geometry">
            <mxPoint as="offset" />
          </mxGeometry>
        </mxCell>
        <mxCell id="dYI3dTuQ3Ob1T5ZX_YG3-58" style="edgeStyle=orthogonalEdgeStyle;rounded=0;orthogonalLoop=1;jettySize=auto;html=1;entryX=0.5;entryY=0;entryDx=0;entryDy=0;endArrow=classicThin;endFill=1;" parent="WIyWlLk6GJQsqaUBKTNV-1" source="dYI3dTuQ3Ob1T5ZX_YG3-43" target="dYI3dTuQ3Ob1T5ZX_YG3-57" edge="1">
          <mxGeometry relative="1" as="geometry" />
        </mxCell>
        <mxCell id="dYI3dTuQ3Ob1T5ZX_YG3-59" value="Search Task&lt;br style=&quot;font-size: 10px;&quot;&gt;expires first" style="edgeLabel;html=1;align=center;verticalAlign=middle;resizable=0;points=[];fontSize=10;" parent="dYI3dTuQ3Ob1T5ZX_YG3-58" vertex="1" connectable="0">
          <mxGeometry x="-0.1375" relative="1" as="geometry">
            <mxPoint as="offset" />
          </mxGeometry>
        </mxCell>
        <mxCell id="dYI3dTuQ3Ob1T5ZX_YG3-60" style="edgeStyle=orthogonalEdgeStyle;rounded=0;orthogonalLoop=1;jettySize=auto;html=1;entryX=0;entryY=0.5;entryDx=0;entryDy=0;endArrow=classicThin;endFill=1;" parent="WIyWlLk6GJQsqaUBKTNV-1" source="dYI3dTuQ3Ob1T5ZX_YG3-43" target="dYI3dTuQ3Ob1T5ZX_YG3-54" edge="1">
          <mxGeometry relative="1" as="geometry" />
        </mxCell>
        <mxCell id="dYI3dTuQ3Ob1T5ZX_YG3-61" value="Next Task&lt;br&gt;expires first" style="edgeLabel;html=1;align=center;verticalAlign=middle;resizable=0;points=[];" parent="dYI3dTuQ3Ob1T5ZX_YG3-60" vertex="1" connectable="0">
          <mxGeometry x="-0.6452" y="-2" relative="1" as="geometry">
            <mxPoint x="19" y="-22" as="offset" />
          </mxGeometry>
        </mxCell>
        <mxCell id="dYI3dTuQ3Ob1T5ZX_YG3-43" value="&lt;font style=&quot;font-size: 9px;&quot;&gt;Compare&lt;br style=&quot;font-size: 9px;&quot;&gt;Search Task&amp;nbsp;to &lt;br&gt;the Next &lt;br&gt;Task.&lt;br style=&quot;font-size: 9px;&quot;&gt;&lt;/font&gt;" style="rhombus;whiteSpace=wrap;html=1;fontSize=9;" parent="WIyWlLk6GJQsqaUBKTNV-1" vertex="1">
          <mxGeometry x="374" y="730" width="80" height="80" as="geometry" />
        </mxCell>
        <mxCell id="dYI3dTuQ3Ob1T5ZX_YG3-81" style="edgeStyle=orthogonalEdgeStyle;rounded=0;orthogonalLoop=1;jettySize=auto;html=1;entryX=0.5;entryY=0;entryDx=0;entryDy=0;endArrow=classicThin;endFill=1;" parent="WIyWlLk6GJQsqaUBKTNV-1" source="dYI3dTuQ3Ob1T5ZX_YG3-44" target="dYI3dTuQ3Ob1T5ZX_YG3-76" edge="1">
          <mxGeometry relative="1" as="geometry">
            <mxPoint x="695" y="650" as="targetPoint" />
            <Array as="points">
              <mxPoint x="730" y="580" />
              <mxPoint x="280" y="580" />
            </Array>
          </mxGeometry>
        </mxCell>
        <mxCell id="dYI3dTuQ3Ob1T5ZX_YG3-44" value="&lt;span style=&quot;font-size: 10px;&quot;&gt;Increment the Search Task.&lt;/span&gt;" style="rounded=0;whiteSpace=wrap;html=1;" parent="WIyWlLk6GJQsqaUBKTNV-1" vertex="1">
          <mxGeometry x="690" y="745" width="90" height="50" as="geometry" />
        </mxCell>
        <mxCell id="dYI3dTuQ3Ob1T5ZX_YG3-47" value="&lt;font style=&quot;font-size: 10px;&quot;&gt;Check for the Search Task for expiration again after the handler returns.&amp;nbsp;&lt;/font&gt;" style="text;html=1;strokeColor=none;fillColor=none;align=center;verticalAlign=middle;whiteSpace=wrap;rounded=0;" parent="WIyWlLk6GJQsqaUBKTNV-1" vertex="1">
          <mxGeometry x="100" y="880" width="120" height="40" as="geometry" />
        </mxCell>
        <mxCell id="dYI3dTuQ3Ob1T5ZX_YG3-63" value="No" style="edgeStyle=orthogonalEdgeStyle;rounded=0;orthogonalLoop=1;jettySize=auto;html=1;entryX=0;entryY=0.5;entryDx=0;entryDy=0;endArrow=classicThin;endFill=1;" parent="WIyWlLk6GJQsqaUBKTNV-1" source="dYI3dTuQ3Ob1T5ZX_YG3-54" target="dYI3dTuQ3Ob1T5ZX_YG3-44" edge="1">
          <mxGeometry x="-0.2" y="10" relative="1" as="geometry">
            <mxPoint as="offset" />
          </mxGeometry>
        </mxCell>
        <mxCell id="dYI3dTuQ3Ob1T5ZX_YG3-67" style="edgeStyle=orthogonalEdgeStyle;rounded=0;orthogonalLoop=1;jettySize=auto;html=1;entryX=0.5;entryY=0;entryDx=0;entryDy=0;entryPerimeter=0;endArrow=classicThin;endFill=1;" parent="WIyWlLk6GJQsqaUBKTNV-1" source="dYI3dTuQ3Ob1T5ZX_YG3-54" target="dYI3dTuQ3Ob1T5ZX_YG3-72" edge="1">
          <mxGeometry relative="1" as="geometry">
            <mxPoint x="575" y="850" as="targetPoint" />
          </mxGeometry>
        </mxCell>
        <mxCell id="dYI3dTuQ3Ob1T5ZX_YG3-75" value="Yes" style="edgeLabel;html=1;align=center;verticalAlign=middle;resizable=0;points=[];fontSize=10;" parent="dYI3dTuQ3Ob1T5ZX_YG3-67" vertex="1" connectable="0">
          <mxGeometry x="-0.1841" relative="1" as="geometry">
            <mxPoint as="offset" />
          </mxGeometry>
        </mxCell>
        <mxCell id="dYI3dTuQ3Ob1T5ZX_YG3-54" value="&lt;font style=&quot;font-size: 10px;&quot;&gt;&lt;br&gt;Is the &lt;br&gt;Search Task &lt;br&gt;the last &lt;br&gt;task?&lt;br&gt;&lt;br&gt;&lt;/font&gt;" style="rhombus;whiteSpace=wrap;html=1;" parent="WIyWlLk6GJQsqaUBKTNV-1" vertex="1">
          <mxGeometry x="560" y="730" width="80" height="80" as="geometry" />
        </mxCell>
        <mxCell id="dYI3dTuQ3Ob1T5ZX_YG3-62" style="edgeStyle=orthogonalEdgeStyle;rounded=0;orthogonalLoop=1;jettySize=auto;html=1;entryX=0;entryY=0.5;entryDx=0;entryDy=0;endArrow=classicThin;endFill=1;" parent="WIyWlLk6GJQsqaUBKTNV-1" source="dYI3dTuQ3Ob1T5ZX_YG3-57" target="dYI3dTuQ3Ob1T5ZX_YG3-54" edge="1">
          <mxGeometry relative="1" as="geometry">
            <Array as="points">
              <mxPoint x="540" y="890" />
              <mxPoint x="540" y="770" />
            </Array>
          </mxGeometry>
        </mxCell>
        <mxCell id="dYI3dTuQ3Ob1T5ZX_YG3-57" value="&lt;span style=&quot;font-size: 10px;&quot;&gt;Set the Next Task&lt;br&gt;to the Search Task&lt;br&gt;&lt;/span&gt;" style="rounded=0;whiteSpace=wrap;html=1;" parent="WIyWlLk6GJQsqaUBKTNV-1" vertex="1">
          <mxGeometry x="368" y="870" width="91" height="40" as="geometry" />
        </mxCell>
        <mxCell id="dYI3dTuQ3Ob1T5ZX_YG3-70" style="edgeStyle=orthogonalEdgeStyle;rounded=0;orthogonalLoop=1;jettySize=auto;html=1;entryX=0.5;entryY=0;entryDx=0;entryDy=0;endArrow=classicThin;endFill=1;" parent="WIyWlLk6GJQsqaUBKTNV-1" target="dYI3dTuQ3Ob1T5ZX_YG3-37" edge="1">
          <mxGeometry relative="1" as="geometry">
            <mxPoint x="150" y="600" as="sourcePoint" />
          </mxGeometry>
        </mxCell>
        <mxCell id="dYI3dTuQ3Ob1T5ZX_YG3-72" value="Return" style="strokeWidth=2;html=1;shape=mxgraph.flowchart.terminator;whiteSpace=wrap;" parent="WIyWlLk6GJQsqaUBKTNV-1" vertex="1">
          <mxGeometry x="570" y="870" width="60" height="40" as="geometry" />
        </mxCell>
        <mxCell id="dYI3dTuQ3Ob1T5ZX_YG3-74" value="Entry" style="strokeWidth=2;html=1;shape=mxgraph.flowchart.start_1;whiteSpace=wrap;" parent="WIyWlLk6GJQsqaUBKTNV-1" vertex="1">
          <mxGeometry x="120" y="560" width="60" height="40" as="geometry" />
        </mxCell>
        <mxCell id="dYI3dTuQ3Ob1T5ZX_YG3-77" style="edgeStyle=orthogonalEdgeStyle;rounded=0;orthogonalLoop=1;jettySize=auto;html=1;endArrow=classicThin;endFill=1;" parent="WIyWlLk6GJQsqaUBKTNV-1" source="dYI3dTuQ3Ob1T5ZX_YG3-76" target="dYI3dTuQ3Ob1T5ZX_YG3-38" edge="1">
          <mxGeometry relative="1" as="geometry" />
        </mxCell>
        <mxCell id="dYI3dTuQ3Ob1T5ZX_YG3-78" value="Yes" style="edgeLabel;html=1;align=center;verticalAlign=middle;resizable=0;points=[];" parent="dYI3dTuQ3Ob1T5ZX_YG3-77" vertex="1" connectable="0">
          <mxGeometry x="-0.4372" relative="1" as="geometry">
            <mxPoint as="offset" />
          </mxGeometry>
        </mxCell>
        <mxCell id="dYI3dTuQ3Ob1T5ZX_YG3-83" style="edgeStyle=orthogonalEdgeStyle;rounded=0;orthogonalLoop=1;jettySize=auto;html=1;entryX=0.5;entryY=0;entryDx=0;entryDy=0;endArrow=classicThin;endFill=1;" parent="WIyWlLk6GJQsqaUBKTNV-1" source="dYI3dTuQ3Ob1T5ZX_YG3-76" target="dYI3dTuQ3Ob1T5ZX_YG3-54" edge="1">
          <mxGeometry relative="1" as="geometry" />
        </mxCell>
        <mxCell id="dYI3dTuQ3Ob1T5ZX_YG3-85" value="No" style="edgeLabel;html=1;align=center;verticalAlign=middle;resizable=0;points=[];" parent="dYI3dTuQ3Ob1T5ZX_YG3-83" vertex="1" connectable="0">
          <mxGeometry x="-0.3851" y="1" relative="1" as="geometry">
            <mxPoint x="-75" y="1" as="offset" />
          </mxGeometry>
        </mxCell>
        <mxCell id="dYI3dTuQ3Ob1T5ZX_YG3-76" value="&lt;font style=&quot;font-size: 10px;&quot;&gt;Is the &lt;br&gt;Search Task Active?&lt;br&gt;&lt;/font&gt;" style="rhombus;whiteSpace=wrap;html=1;" parent="WIyWlLk6GJQsqaUBKTNV-1" vertex="1">
          <mxGeometry x="240" y="610" width="80" height="80" as="geometry" />
        </mxCell>
        <mxCell id="dYI3dTuQ3Ob1T5ZX_YG3-80" style="edgeStyle=orthogonalEdgeStyle;rounded=0;orthogonalLoop=1;jettySize=auto;html=1;exitX=0.5;exitY=1;exitDx=0;exitDy=0;exitPerimeter=0;" parent="WIyWlLk6GJQsqaUBKTNV-1" source="dYI3dTuQ3Ob1T5ZX_YG3-72" target="dYI3dTuQ3Ob1T5ZX_YG3-72" edge="1">
          <mxGeometry relative="1" as="geometry" />
        </mxCell>
        <mxCell id="dYI3dTuQ3Ob1T5ZX_YG3-84" value="&lt;font style=&quot;font-size: 14px;&quot;&gt;Task Search&lt;/font&gt;" style="text;strokeColor=none;fillColor=none;html=1;fontSize=18;fontStyle=1;verticalAlign=middle;align=center;" parent="WIyWlLk6GJQsqaUBKTNV-1" vertex="1">
          <mxGeometry x="364" y="525" width="100" height="40" as="geometry" />
        </mxCell>
      </root>
    </mxGraphModel>
  </diagram>
</mxfile>
